<svg xmlns="http://www.w3.org/2000/svg" viewBox="0 0 240 183.04"><defs><style>.cls-1{fill:#1673e6;}</style></defs><title>SeatGeek-logo-icon-blue</title><g id="Layer_2" data-name="Layer 2"><g id="Layer_1-2" data-name="Layer 1"><path class="cls-1" d="M41.16,19.71S71.28,0,120,0s78.84,19.71,78.84,19.71L179.13,124.36H60.87Z"/><path class="cls-1" d="M41.16,147.56s30.66,14,78.84,14,78.84-14,78.84-14V169.9S167.63,183,120,183,41.16,169.9,41.16,169.9Z"/><path class="cls-1" d="M39.42,133.12V95.89a11,11,0,0,0-11-11H0v19.71H18.4v28.47Z"/><path class="cls-1" d="M200.58,133.12V95.89a11,11,0,0,1,10.95-11H240v19.71H221.6v28.47Z"/></g></g></svg>